<svg width="26" height="22" viewBox="0 0 26 22" fill="none" xmlns="http://www.w3.org/2000/svg">
<path d="M9.69029 1H5.46287C5.36582 1 5.28278 1.06966 5.26591 1.16523L3.04145 13.7652C3.01983 13.8877 3.11404 14 3.2384 14H7.69934C7.76751 14 7.83098 13.9653 7.86775 13.9079L10.3533 10.0274C10.4365 9.89748 10.6293 9.90675 10.6997 10.0441L11.4678 11.543C11.5397 11.6835 11.7384 11.6892 11.8183 11.5531L14.0832 7.6942C14.1608 7.56209 14.352 7.56263 14.4288 7.69517L18.0242 13.9003C18.0599 13.962 18.1259 14 18.1972 14H22.7636C22.8873 14 22.9813 13.8888 22.9608 13.7668L20.8423 1.16684C20.8261 1.07053 20.7427 1 20.645 1H16.5302C16.4744 1 16.4211 1.02335 16.3832 1.0644L13.3086 4.39789C13.2302 4.48281 13.0965 4.4839 13.0168 4.40028L9.83506 1.06201C9.79732 1.02241 9.745 1 9.69029 1Z" fill="white" stroke="white"/>
<path d="M4.06818 18.27C4.28152 18.27 4.46985 18.3133 4.63318 18.4C4.79985 18.4833 4.92985 18.6133 5.02318 18.79C5.11985 18.9633 5.16818 19.1867 5.16818 19.46V21H4.38818V19.58C4.38818 19.3633 4.34318 19.2033 4.25318 19.1C4.16318 18.9967 4.03652 18.945 3.87318 18.945C3.75985 18.945 3.65818 18.9717 3.56818 19.025C3.47818 19.075 3.40818 19.1517 3.35818 19.255C3.30818 19.3583 3.28318 19.49 3.28318 19.65V21H2.50318V19.58C2.50318 19.3633 2.45818 19.2033 2.36818 19.1C2.28152 18.9967 2.15652 18.945 1.99318 18.945C1.87985 18.945 1.77818 18.9717 1.68818 19.025C1.59818 19.075 1.52818 19.1517 1.47818 19.255C1.42818 19.3583 1.40318 19.49 1.40318 19.65V21H0.623184V18.31H1.36818V19.045L1.22818 18.83C1.32152 18.6467 1.45318 18.5083 1.62318 18.415C1.79652 18.3183 1.99318 18.27 2.21318 18.27C2.45985 18.27 2.67485 18.3333 2.85818 18.46C3.04485 18.5833 3.16818 18.7733 3.22818 19.03L2.95318 18.955C3.04318 18.745 3.18652 18.5783 3.38318 18.455C3.58318 18.3317 3.81152 18.27 4.06818 18.27ZM6.16232 21.04C6.02899 21.04 5.91399 20.995 5.81732 20.905C5.72399 20.8117 5.67732 20.6933 5.67732 20.55C5.67732 20.4067 5.72399 20.2917 5.81732 20.205C5.91399 20.115 6.02899 20.07 6.16232 20.07C6.29899 20.07 6.41399 20.115 6.50732 20.205C6.60066 20.2917 6.64732 20.4067 6.64732 20.55C6.64732 20.6933 6.60066 20.8117 6.50732 20.905C6.41399 20.995 6.29899 21.04 6.16232 21.04ZM10.6209 18.27C10.8343 18.27 11.0226 18.3133 11.1859 18.4C11.3526 18.4833 11.4826 18.6133 11.5759 18.79C11.6726 18.9633 11.7209 19.1867 11.7209 19.46V21H10.9409V19.58C10.9409 19.3633 10.8959 19.2033 10.8059 19.1C10.7159 18.9967 10.5893 18.945 10.4259 18.945C10.3126 18.945 10.2109 18.9717 10.1209 19.025C10.0309 19.075 9.96092 19.1517 9.91092 19.255C9.86092 19.3583 9.83592 19.49 9.83592 19.65V21H9.05592V19.58C9.05592 19.3633 9.01092 19.2033 8.92092 19.1C8.83425 18.9967 8.70925 18.945 8.54592 18.945C8.43258 18.945 8.33092 18.9717 8.24092 19.025C8.15092 19.075 8.08092 19.1517 8.03092 19.255C7.98092 19.3583 7.95592 19.49 7.95592 19.65V21H7.17592V18.31H7.92092V19.045L7.78092 18.83C7.87425 18.6467 8.00592 18.5083 8.17592 18.415C8.34925 18.3183 8.54592 18.27 8.76592 18.27C9.01258 18.27 9.22758 18.3333 9.41092 18.46C9.59758 18.5833 9.72092 18.7733 9.78092 19.03L9.50592 18.955C9.59592 18.745 9.73925 18.5783 9.93592 18.455C10.1359 18.3317 10.3643 18.27 10.6209 18.27ZM12.7151 21.04C12.5817 21.04 12.4667 20.995 12.3701 20.905C12.2767 20.8117 12.2301 20.6933 12.2301 20.55C12.2301 20.4067 12.2767 20.2917 12.3701 20.205C12.4667 20.115 12.5817 20.07 12.7151 20.07C12.8517 20.07 12.9667 20.115 13.0601 20.205C13.1534 20.2917 13.2001 20.4067 13.2001 20.55C13.2001 20.6933 13.1534 20.8117 13.0601 20.905C12.9667 20.995 12.8517 21.04 12.7151 21.04ZM16.2447 21.04C15.928 21.04 15.6813 20.96 15.5047 20.8C15.328 20.6367 15.2397 20.395 15.2397 20.075V17.715H16.0197V20.065C16.0197 20.1783 16.0497 20.2667 16.1097 20.33C16.1697 20.39 16.2513 20.42 16.3547 20.42C16.478 20.42 16.583 20.3867 16.6697 20.32L16.8797 20.87C16.7997 20.9267 16.703 20.97 16.5897 21C16.4797 21.0267 16.3647 21.04 16.2447 21.04ZM14.8247 18.97V18.37H16.6897V18.97H14.8247ZM18.5145 21.04C18.2278 21.04 17.9728 20.98 17.7495 20.86C17.5295 20.74 17.3545 20.5767 17.2245 20.37C17.0978 20.16 17.0345 19.9217 17.0345 19.655C17.0345 19.385 17.0978 19.1467 17.2245 18.94C17.3545 18.73 17.5295 18.5667 17.7495 18.45C17.9728 18.33 18.2278 18.27 18.5145 18.27C18.7978 18.27 19.0512 18.33 19.2745 18.45C19.4978 18.5667 19.6728 18.7283 19.7995 18.935C19.9262 19.1417 19.9895 19.3817 19.9895 19.655C19.9895 19.9217 19.9262 20.16 19.7995 20.37C19.6728 20.5767 19.4978 20.74 19.2745 20.86C19.0512 20.98 18.7978 21.04 18.5145 21.04ZM18.5145 20.4C18.6445 20.4 18.7612 20.37 18.8645 20.31C18.9678 20.25 19.0495 20.165 19.1095 20.055C19.1695 19.9417 19.1995 19.8083 19.1995 19.655C19.1995 19.4983 19.1695 19.365 19.1095 19.255C19.0495 19.145 18.9678 19.06 18.8645 19C18.7612 18.94 18.6445 18.91 18.5145 18.91C18.3845 18.91 18.2678 18.94 18.1645 19C18.0612 19.06 17.9778 19.145 17.9145 19.255C17.8545 19.365 17.8245 19.4983 17.8245 19.655C17.8245 19.8083 17.8545 19.9417 17.9145 20.055C17.9778 20.165 18.0612 20.25 18.1645 20.31C18.2678 20.37 18.3845 20.4 18.5145 20.4ZM21.6459 21.04C21.4225 21.04 21.2225 20.9967 21.0459 20.91C20.8725 20.8233 20.7375 20.6917 20.6409 20.515C20.5442 20.335 20.4959 20.1067 20.4959 19.83V18.31H21.2759V19.715C21.2759 19.9383 21.3225 20.1033 21.4159 20.21C21.5125 20.3133 21.6475 20.365 21.8209 20.365C21.9409 20.365 22.0475 20.34 22.1409 20.29C22.2342 20.2367 22.3075 20.1567 22.3609 20.05C22.4142 19.94 22.4409 19.8033 22.4409 19.64V18.31H23.2209V21H22.4809V20.26L22.6159 20.475C22.5259 20.6617 22.3925 20.8033 22.2159 20.9C22.0425 20.9933 21.8525 21.04 21.6459 21.04ZM23.9435 21V18.31H24.6885V19.07L24.5835 18.85C24.6635 18.66 24.7918 18.5167 24.9685 18.42C25.1452 18.32 25.3602 18.27 25.6135 18.27V18.99C25.5802 18.9867 25.5502 18.985 25.5235 18.985C25.4968 18.9817 25.4685 18.98 25.4385 18.98C25.2252 18.98 25.0518 19.0417 24.9185 19.165C24.7885 19.285 24.7235 19.4733 24.7235 19.73V21H23.9435Z" fill="white"/>
</svg>
